PathFileType	4	(X/Y/Z)	/Users/niels/Desktop/University/Third Semester/Perception and Action/Exam/Gymnastics Motion Tracking/Code for Gym Tracking/Analyzed Data/kraft_good_id2_1_Sports2D/kraft_good_id2_1_Sports2D_px_person00.trc
DataRate	CameraRate	NumFrames	NumMarkers	Units	OrigDataRate	OrigDataStartFrame	OrigNumFrames
143.44186046511626	143.44186046511626	10	22	m	143.44186046511626	64	258
Frame#	Time	Hip			RHip			RKnee			RAnkle			RBigToe			RSmallToe			RHeel			LHip			LKnee			LAnkle			LBigToe			LSmallToe			LHeel			Neck			Head			Nose			RShoulder			RElbow			RWrist			LShoulder			LElbow			LWrist		
		X1	Y1	Z1	X2	Y2	Z2	X3	Y3	Z3	X4	Y4	Z4	X5	Y5	Z5	X6	Y6	Z6	X7	Y7	Z7	X8	Y8	Z8	X9	Y9	Z9	X10	Y10	Z10	X11	Y11	Z11	X12	Y12	Z12	X13	Y13	Z13	X14	Y14	Z14	X15	Y15	Z15	X16	Y16	Z16	X17	Y17	Z17	X18	Y18	Z18	X19	Y19	Z19	X20	Y20	Z20	X21	Y21	Z21	X22	Y22	Z22
64	0.4461738002594034	0.16043015859238643	-0.36192806222794344	0.0	0.16546906745425635	-0.3633295744616169	0.0	0.24308814177878488	-0.43210056610234393	0.0	0.24077931963048177	-0.5259979750717368	0.0	0.2770912685968111	-0.5409241555040427	0.0	0.27143547478531804	-0.5433805520028719	0.0	0.23444723805702117	-0.5374072883625486	0.0	0.15730008422318958	-0.3627948704374991	0.0	0.1774346760602249	-0.46110014634111146	0.0	0.14221300753048322	-0.550215704016954	0.0	0.1774659110922663	-0.5691864042384681	0.0	0.17259958173087897	-0.5656624011318004	0.0	0.13300320211572692	-0.5588519719232989	0.0	0.24594447973463704	-0.2741137826522485	0.0	0.29791692357765914	-0.2391101301384381	0.0	0.2905667794193333	-0.26491618662500127	0.0	0.24375638977504946	-0.2747193940109012	0.0	0.2978206317390136	-0.2713723318829674	0.0	0.3493276405369675	-0.254594628392265	0.0	0.2477312328624061	-0.2747766578157433	0.0	0.3053298962283149	-0.2771922040434251	0.0	0.3564375518112057	-0.26046168278951914	0.0
65	0.45314526588845655	0.16660670046135267	-0.3630877124474514	0.0	0.17200820695813518	-0.36452242426597425	0.0	0.24969323772781696	-0.43315974172011823	0.0	0.2507874485350171	-0.5273199343107966	0.0	0.2873517776343119	-0.5411909408881093	0.0	0.281870204201584	-0.5439210424140641	0.0	0.2448643420182574	-0.5389694301681074	0.0	0.16332846823458946	-0.363781129067262	0.0	0.18420481555699356	-0.4620675783956618	0.0	0.1493397421492191	-0.5518215682371425	0.0	0.18496349449186802	-0.5701691445971769	0.0	0.17994083696830235	-0.5667762216673667	0.0	0.14011793540099418	-0.5608169958460826	0.0	0.25274546171214246	-0.2758843411434866	0.0	0.30537072045366376	-0.2414306810162021	0.0	0.297522139842331	-0.2669651937658665	0.0	0.2511294986177661	-0.27685855487612976	0.0	0.3057804419749674	-0.2739297565588931	0.0	0.3576164369435194	-0.25761395916584756	0.0	0.25369149913790373	-0.2760009358397355	0.0	0.3113785661487479	-0.27868606240413996	0.0	0.3628024552958646	-0.262443677532064	0.0
66	0.46011673151750976	0.17280500324112796	-0.36435186553722426	0.0	0.17855949107548713	-0.36581932194870603	0.0	0.2563000532136454	-0.43432058851059235	0.0	0.2606543802878299	-0.5286483488681746	0.0	0.29741056574424	-0.5415006930830547	0.0	0.29209896699271876	-0.5445098963894854	0.0	0.25513599309625373	-0.5405248072437934	0.0	0.16939023322333033	-0.3648897472796287	0.0	0.1908670658124237	-0.46311600932549685	0.0	0.15621281037626236	-0.5533911278743644	0.0	0.19214497462843255	-0.571199891167924	0.0	0.1869676287192135	-0.5679398973312477	0.0	0.14696718664696792	-0.5627154557856145	0.0	0.25958170104744654	-0.27777260197962284	0.0	0.31277300528818364	-0.24384995724621775	0.0	0.30447544608032795	-0.2691149991923471	0.0	0.25849259112729567	-0.2791211335860676	0.0	0.3137073137307948	-0.2765803986705512	0.0	0.36585273564145765	-0.2607127935362591	0.0	0.25970552537474434	-0.2773770105309998	0.0	0.3174531194598291	-0.28025402071918243	0.0	0.36920342465865374	-0.26453731425342586	0.0
67	0.4670881971465629	0.17902618922319297	-0.3657113186872831	0.0	0.18512259978672838	-0.36721120123993123	0.0	0.26290807894354495	-0.4355751262878407	0.0	0.270355849860834	-0.5299824663832853	0.0	0.30724034970142605	-0.5418542781855871	0.0	0.3020951729161372	-0.5451469906829951	0.0	0.2652360468919514	-0.5420728395875041	0.0	0.1754832763111012	-0.3661123252556088	0.0	0.1974032077707456	-0.46423779465695614	0.0	0.16279750170143645	-0.5549168754176724	0.0	0.19896948864059755	-0.5722780280074119	0.0	0.1936414560965812	-0.5691457473749288	0.0	0.15351539637605333	-0.5645389726133807	0.0	0.26645713898154555	-0.27977578348316084	0.0	0.32013038402717886	-0.246365428158753	0.0	0.31143177240692443	-0.2713636249637555	0.0	0.2658504384750181	-0.2815014202047448	0.0	0.3216059192058368	-0.27931834389125093	0.0	0.37404075079226096	-0.2638885445593337	0.0	0.26578083285672766	-0.2789027060320206	0.0	0.3235585763507863	-0.2818994867432937	0.0	0.37564170921591616	-0.2667439885324331	0.0
68	0.4740596627756161	0.18527192095482017	-0.36715537688107636	0.0	0.1916979883554165	-0.36868773576398917	0.0	0.26951629154872025	-0.4369144100586369	0.0	0.2798683033325535	-0.5313204433254781	0.0	0.31681475229266387	-0.5422521631408005	0.0	0.3118331053905667	-0.5458314950738521	0.0	0.2751391618307622	-0.5436119054057139	0.0	0.18160596162738712	-0.3674385606945863	0.0	0.2037953842985322	-0.4654238698988671	0.0	0.16906425363755095	-0.5563906670107466	0.0	0.20540234203093977	-0.5734001718120272	0.0	0.19992964503907934	-0.5703844525838861	0.0	0.15973266144594625	-0.5662785675688788	0.0	0.27337634647022846	-0.2818907013772165	0.0	0.32745099262560323	-0.24897484766519995	0.0	0.3183970880038552	-0.2737089019513305	0.0	0.2732091211320528	-0.28399342226479046	0.0	0.3294816605047108	-0.28213883492981984	0.0	0.38218525144864346	-0.2671404338190291	0.0	0.27192503528868506	-0.2805744947470759	0.0	0.3297001965571049	-0.2836265719343988	0.0	0.3821183605846965	-0.2690655659172366	0.0
69	0.4810311284046693	0.19154382807467782	-0.36867176921351996	0.0	0.19828632008332545	-0.3702372195435041	0.0	0.2761224855375205	-0.43832833079925104	0.0	0.28916816520000516	-0.5326591441201839	0.0	0.3261076406962811	-0.5426941774959744	0.0	0.3212873269750441	-0.5465616279814416	0.0	0.2848199221962251	-0.5451391288080049	0.0	0.18775655317602544	-0.36885614545000867	0.0	0.21002566009751303	-0.466663623948278	0.0	0.17498835247801184	-0.5578035021603373	0.0	0.21141476441920914	-0.5745600125804163	0.0	0.2058050605594267	-0.5716449198520926	0.0	0.1655943830749167	-0.567924432214641	0.0	0.2803439646721895	-0.2841136492384606	0.0	0.33474348271887594	-0.2516756745236385	0.0	0.3253774305981804	-0.27614821388344596	0.0	0.280575448685912	-0.28659079406325133	0.0	0.33733968652372287	-0.2850380506596417	0.0	0.3902905219628798	-0.2704693616744206	0.0	0.27814535440808336	-0.28238756946778226	0.0	0.3358829173393748	-0.2854395661801726	0.0	0.3886336877370797	-0.2715041675815033	0.0
70	0.4880025940337225	0.19784306448752947	-0.37024667218896673	0.0	0.20488799462971918	-0.3718465150984618	0.0	0.2827226811486541	-0.43980556196665976	0.0	0.29823124891087777	-0.533994076451146	0.0	0.3350926654480966	-0.543179245836804	0.0	0.3304323042115398	-0.547334402097883	0.0	0.2942520828403512	-0.5466502510833889	0.0	0.1939328569590367	-0.37035080495511946	0.0	0.2160757467058214	-0.46794477332698836	0.0	0.18054969370556098	-0.5591453446110983	0.0	0.21698364207198262	-0.575748236910847	0.0	0.21124587471997994	-0.5729141709491468	0.0	0.17108103714510065	-0.5694657333694262	0.0	0.2873641673990135	-0.2864403323243392	0.0	0.34201618727920247	-0.2544646595863751	0.0	0.33237811773058235	-0.2786784412538566	0.0	0.2879561685481508	-0.2892868190613797	0.0	0.34518394058503615	-0.2880128630722278	0.0	0.39835950861543795	-0.2738776871158197	0.0	0.28444821223819616	-0.2843359361882204	0.0	0.34211086716274514	-0.2873424833503308	0.0	0.3951868744281221	-0.27406198179721863	0.0
71	0.49497405966277563	0.20417008895875985	-0.3718647992782189	0.0	0.2115028485983044	-0.3735010902528164	0.0	0.2893108062079707	-0.44133360562407664	0.0	0.30703251220576216	-0.5353193612076936	0.0	0.3437431421928649	-0.54370517901359	0.0	0.3392423288983298	-0.5481454508050241	0.0	0.30340821787105915	-0.5481395528690577	0.0	0.20013210303763368	-0.3719064181710791	0.0	0.22192702462298433	-0.46925332926695534	0.0	0.18573283147412245	-0.5604050440001582	0.0	0.22209150062055333	-0.5769525140999525	0.0	0.21623561706968414	-0.5741772579511232	0.0	0.17617825005964707	-0.5708904970855855	0.0	0.2944403287262211	-0.2888658318806966	0.0	0.3492767163158372	-0.2573377028484501	0.0	0.33940328254978	-0.2812959111747709	0.0	0.29535722824833804	-0.292074282133493	0.0	0.35301652999140165	-0.29106076053257735	0.0	0.4063933290041754	-0.27736899584946345	0.0	0.29083912090471614	-0.2864125442570793	0.0	0.3483873094716205	-0.28933903860041366	0.0	0.40177595727746307	-0.2767412765621349	0.0
72	0.5019455252918288	0.21052456238836462	-0.3735095262410998	0.0	0.21812994532624216	-0.3751851745589868	0.0	0.2958785746458177	-0.4428988270687216	0.0	0.3155459974238661	-0.5366275546772995	0.0	0.3520319677852385	-0.544268525552157	0.0	0.3476914874296555	-0.5489888781042314	0.0	0.3122596325402848	-0.5495996903123961	0.0	0.2063509194676023	-0.3735051663325471	0.0	0.22756083196432042	-0.4705736388416047	0.0	0.1905272400184333	-0.561570289570421	0.0	0.2267267375563636	-0.5781576019018387	0.0	0.22076350412128726	-0.575417304253574	0.0	0.1808770792877766	-0.5721855893181256	0.0	0.30157480037884765	-0.29138453945786535	0.0	0.35653167773411915	-0.26028980283065706	0.0	0.34645563101661964	-0.2839962679753182	0.0	0.30278324045079424	-0.2949452144729864	0.0	0.36083740140108345	-0.2941798378230948	0.0	0.41439114736972193	-0.280947854656599	0.0	0.29732264995065694	-0.28860947539666465	0.0	0.3547148580789963	-0.2914329524891884	0.0	0.4083980055603875	-0.2795445476619325	0.0
73	0.508916990920882	0.21690550073850676	-0.37516313771560067	0.0	0.22476758855459525	-0.3768820581592318	0.0	0.3024156258129064	-0.4444864925272289	0.0	0.3237452018141139	-0.5379093498030876	0.0	0.3599318502275596	-0.5448644781158812	0.0	0.35575392087150415	-0.5498571051533186	0.0	0.32077676731071436	-0.5510214222213929	0.0	0.21258562271110995	-0.3751278176474115	0.0	0.23295925361870115	-0.4718884743684827	0.0	0.19492784823501508	-0.5626276049666112	0.0	0.23088419956432932	-0.5793456356873271	0.0	0.22482508569056017	-0.5766156947594839	0.0	0.18517454444699213	-0.5733367956513872	0.0	0.3087689763899356	-0.2939901404742986	0.0	0.3637865795170691	-0.2633150581424964	0.0	0.35353652562337134	-0.28677449438509656	0.0	0.31023732741863974	-0.29789079432049803	0.0	0.36864448394198424	-0.2973687855457491	0.0	0.42235051885438013	-0.2846196353332997	0.0	0.3039025673201242	-0.290918212175279	0.0	0.36109589689059657	-0.29362818541126695	0.0	0.41504946201681553	-0.2824747032124866	0.0
